PathFileType	4	(X/Y/Z)	C:/Users/dbak576/Desktop/Duncan Bakke Modelling Files/Output/AB08/StaticAB08.trc	
DataRate	CameraRate	NumFrames	NumMarkers	Units	OrigDataRate	OrigDataStartFrame	OrigNumFrames	
200.00	200.00	4	42	mm	200.00	32	125	
Frame#	Time	LASI			RASI			LPSI			RPSI			LTH1			LTH2			LTH3			LTH4			LMFC			LLFC			LTB1			LTB2			LTB3			LTB4			LMMAL			LLMAL			LCAL			LToe			LMT1			LMT5			RTH1			RTH2			RTH3			RTH4			RMFC			RLFC			RTB1			RTB2			RTB3			RTB4			RMMAL			RLMAL			RCAL			RToe			RMT1			RMT5			C7			T10			LACR1			RACR1			CLAV			RBack			
		X1	Y1	Z1	X2	Y2	Z2	X3	Y3	Z3	X4	Y4	Z4	X5	Y5	Z5	X6	Y6	Z6	X7	Y7	Z7	X8	Y8	Z8	X9	Y9	Z9	X10	Y10	Z10	X11	Y11	Z11	X12	Y12	Z12	X13	Y13	Z13	X14	Y14	Z14	X15	Y15	Z15	X16	Y16	Z16	X17	Y17	Z17	X18	Y18	Z18	X19	Y19	Z19	X20	Y20	Z20	X21	Y21	Z21	X22	Y22	Z22	X23	Y23	Z23	X24	Y24	Z24	X25	Y25	Z25	X26	Y26	Z26	X27	Y27	Z27	X28	Y28	Z28	X29	Y29	Z29	X30	Y30	Z30	X31	Y31	Z31	X32	Y32	Z32	X33	Y33	Z33	X34	Y34	Z34	X35	Y35	Z35	X36	Y36	Z36	X37	Y37	Z37	X38	Y38	Z38	X39	Y39	Z39	X40	Y40	Z40	X41	Y41	Z41	X42	Y42	Z42	

32	0.155	354.42169	918.14935	973.12396	604.34717	915.98370	991.02240	417.84497	695.83228	1008.13025	544.11530	687.52930	1013.19482	336.06729	918.98126	681.09485	325.46228	896.84576	649.30554	371.82288	897.06616	601.49329	355.35318	908.81866	637.45496	443.54944	828.75885	508.49615	319.66397	800.25916	520.61951	289.60660	769.82739	428.57889	286.77658	759.98993	344.66861	301.48590	812.45813	341.23001	297.38217	804.99664	381.12424	383.35110	797.93195	121.33215	298.31021	774.41113	116.27356	338.79245	705.29486	52.32048	354.92410	1008.81934	46.18773	384.65549	920.36853	48.07305	262.95355	902.05847	40.27859	609.77478	917.71130	705.48151	599.26440	899.29706	642.61279	643.43982	861.13135	623.95874	650.89038	880.19336	678.65234	520.79504	828.99475	507.69159	647.01691	803.58167	531.23413	662.09894	815.22131	418.55179	653.00696	826.95142	381.32227	646.98193	831.72705	330.92569	679.09570	788.17792	335.10953	584.01398	799.62720	122.96730	671.42297	771.23413	113.49190	625.32037	700.54242	57.21991	617.61627	1004.10724	42.39061	587.06238	911.10822	42.05191	708.65027	891.52972	43.77305	449.65839	726.61646	1498.50537	455.14804	692.80603	1242.59546	288.32074	796.01501	1478.49243	609.98590	777.98926	1490.74487	460.40665	889.25061	1455.33411	571.92450	680.27612	1396.65271 
33	0.160	354.35388	918.15900	973.15533	604.24878	915.99939	990.96881	417.75397	695.84821	1008.14069	544.05255	687.58514	1013.18512	336.01785	919.04108	681.13202	325.38104	896.85419	649.27319	371.80212	897.10815	601.52515	355.36871	908.91693	637.47601	443.49380	828.78033	508.52750	319.55420	800.28345	520.66846	289.65302	769.77325	428.56235	286.79630	760.01971	344.69174	301.39960	812.49756	341.29041	297.38031	805.04553	381.09879	383.36423	797.93427	121.32921	298.30270	774.39417	116.27692	338.79147	705.32990	52.30940	354.88702	1008.83356	46.17503	384.65247	920.36627	48.08599	262.96011	902.03131	40.28863	609.84076	917.66504	705.76331	599.21484	899.34943	642.60205	643.40710	861.14398	623.96094	650.85791	880.19513	678.62714	520.76416	829.04773	507.69241	646.93872	803.53461	531.24146	662.03094	815.21149	418.51563	652.92285	826.93005	381.29517	646.96136	831.71619	330.89612	679.05554	788.19244	335.12607	584.02911	799.55579	122.94261	671.43274	771.23315	113.47950	625.32715	700.53375	57.20064	617.59229	1003.92535	42.20924	586.55536	911.18494	42.17368	708.68335	891.54944	43.80848	449.64536	726.62524	1498.50623	455.12289	692.19385	1242.63708	288.29187	795.94629	1478.44019	609.99353	777.96948	1490.78735	460.43430	889.30811	1455.38367	571.95538	680.29279	1396.67334 
34	0.165	354.31705	918.19983	973.17145	604.22205	916.00244	990.96661	417.66171	695.85852	1008.12329	543.95044	687.59082	1013.18976	335.94650	919.08356	681.12079	325.30801	896.90045	649.29553	371.76282	897.16895	601.54694	355.34238	908.94427	637.47064	443.41098	828.81091	508.53891	319.51666	800.34314	520.67181	289.68430	769.89331	428.62079	286.79538	760.02502	344.69080	301.43542	812.58282	341.30359	297.42188	805.11865	381.12991	383.36209	797.96472	121.32961	298.32205	774.42194	116.27004	338.75854	705.31146	52.37988	354.90793	1008.84943	46.19454	384.63684	920.40692	48.11395	262.97992	902.07770	40.31515	609.80725	917.65118	705.72876	599.15198	899.34998	642.59290	643.33191	861.14093	623.93701	650.82770	880.19788	678.63971	520.73328	829.11359	507.70041	646.88934	803.60114	531.21478	662.00464	815.22351	418.51611	652.91412	826.95044	381.32565	646.90845	831.73553	330.90924	679.04816	788.20044	335.14063	584.02740	799.59894	122.94283	671.44299	771.23987	113.49459	625.31665	700.56427	57.19454	617.60742	1004.15106	42.41074	587.19116	911.21454	42.06152	708.65881	891.56146	43.81463	449.62903	726.59705	1498.50647	455.10220	692.56628	1242.61145	288.26840	795.92194	1478.43433	609.99988	777.99316	1490.80042	460.43918	889.30884	1455.39941	571.95044	680.28680	1396.67261 
35	0.170	354.28815	918.29205	973.23383	604.14789	915.99561	990.94470	417.56989	695.94946	1008.17621	543.85919	687.62152	1013.19031	335.87009	919.16071	681.18030	325.25339	896.93793	649.32617	371.68536	897.24323	601.54254	355.25745	909.00769	637.49078	443.38916	828.81842	508.53711	319.45929	800.36255	520.67950	289.61380	769.94537	428.59357	286.71384	760.08643	344.69861	301.43906	812.57190	341.33179	297.30841	805.16620	381.11264	383.35992	797.93127	121.34207	298.31155	774.42047	116.27294	338.74567	705.32239	52.36483	354.91400	1008.85730	46.20876	384.64517	920.41235	48.10405	262.96042	902.12854	40.32519	609.59546	917.76068	705.41675	599.09595	899.33221	642.60193	643.24634	861.17212	623.93585	650.75183	880.23267	678.64746	520.68414	829.04919	507.66852	646.82025	803.59979	531.21875	661.99060	815.21393	418.54010	652.87640	826.98083	381.32651	646.91699	831.71222	330.91364	679.01648	788.15454	335.17639	584.01184	799.59851	122.94367	671.42383	771.25183	113.50237	625.29602	700.58563	57.21090	617.62823	1004.11890	42.42836	586.60919	911.23199	42.19226	708.65759	891.57593	43.81083	449.59564	726.62000	1498.50525	455.12314	692.40198	1242.57678	288.24667	795.92047	1478.38562	609.97253	778.00122	1490.81470	460.35663	889.28168	1455.38647	571.95770	680.28589	1396.70740 
